<?xml version="1.0" standalone="no"?>
<!DOCTYPE svg PUBLIC "-//W3C//DTD SVG 20010904//EN"
 "http://www.w3.org/TR/2001/REC-SVG-20010904/DTD/svg10.dtd">
<svg version="1.0" xmlns="http://www.w3.org/2000/svg"
 width="1024.000000pt" height="315.000000pt" viewBox="0 0 1024.000000 315.000000"
 preserveAspectRatio="xMidYMid meet">
<metadata>
Created by potrace 1.15, written by Peter Selinger 2001-2017
</metadata>
<g transform="translate(0.000000,315.000000) scale(0.100000,-0.100000)"
fill="#000000" stroke="none">
<path d="M9686 3107 c-59 -59 -86 -134 -86 -235 0 -117 18 -161 157 -397 53
-91 74 -153 80 -235 10 -140 -45 -249 -133 -266 -42 -8 -62 0 -164 65 -214
137 -313 161 -664 161 -199 0 -220 -2 -302 -25 -90 -26 -215 -83 -379 -173
-85 -46 -97 -50 -225 -66 -268 -35 -400 -88 -489 -195 -68 -82 -130 -180 -137
-217 -16 -88 34 -222 111 -293 24 -22 49 -41 54 -41 5 0 3 21 -5 47 -8 25 -14
59 -14 75 0 41 26 98 45 98 17 0 45 -56 45 -91 0 -18 4 -21 29 -16 15 3 57 19
92 35 35 16 82 35 104 42 22 7 60 23 84 37 50 29 61 22 61 -37 0 -52 -33 -115
-90 -170 l-51 -49 33 -9 c39 -10 78 -3 175 32 67 25 233 50 233 36 0 -12 -79
-51 -172 -83 l-93 -34 -6 -194 c-6 -180 -9 -204 -43 -334 -50 -193 -63 -217
-132 -245 -68 -28 -84 -43 -84 -81 0 -16 -9 -38 -19 -48 -11 -11 -25 -39 -32
-63 -6 -24 -17 -55 -24 -69 l-14 -26 62 20 c34 11 100 45 147 77 47 31 104 67
127 80 50 28 54 36 63 120 6 54 25 167 34 205 3 11 10 50 28 155 12 69 68 193
119 263 53 73 112 102 249 123 19 3 53 10 75 15 198 49 209 50 335 46 69 -3
190 -12 270 -22 277 -32 379 -7 511 124 87 87 110 146 113 286 3 116 4 121
106 255 86 114 134 211 155 309 19 91 19 123 -1 207 -18 80 -39 123 -112 229
-110 160 -140 257 -104 338 24 55 59 80 118 83 64 4 164 37 164 55 0 8 -154
59 -177 59 -6 0 -33 18 -59 40 -69 57 -109 56 -168 -3z"/>
<path d="M5015 1976 c-291 -72 -437 -396 -304 -673 31 -64 131 -163 199 -196
158 -77 359 -74 519 8 47 23 51 28 51 60 0 41 -6 42 -68 11 -121 -61 -300 -79
-407 -42 -180 63 -289 249 -257 439 16 91 44 149 102 211 91 98 175 131 314
123 110 -6 134 -11 211 -43 98 -42 95 -42 95 4 l0 40 -70 26 c-123 45 -278 58
-385 32z"/>
<path d="M0 1525 l0 -456 253 3 252 3 69 33 c90 42 150 92 196 163 53 83 73
149 73 249 1 175 -88 330 -232 404 -83 43 -120 48 -368 53 l-243 5 0 -457z
m523 296 c103 -52 154 -120 177 -239 11 -53 10 -71 -4 -129 -50 -201 -176
-273 -473 -273 l-83 0 0 341 0 341 158 -4 c156 -3 158 -3 225 -37z"/>
<path d="M1580 1520 l0 -460 60 0 60 0 0 460 0 460 -60 0 -60 0 0 -460z"/>
<path d="M5570 1520 l0 -460 30 0 30 0 0 460 0 460 -30 0 -30 0 0 -460z"/>
<path d="M6410 1536 l0 -444 78 -21 c170 -46 300 -16 396 90 61 68 80 131 74
249 -5 100 -30 154 -99 213 -81 70 -218 75 -319 13 l-55 -34 -3 189 -2 189
-35 0 -35 0 0 -444z m358 65 c82 -42 116 -106 116 -216 0 -95 -19 -140 -86
-202 -54 -49 -122 -68 -214 -60 -109 10 -104 -1 -104 211 0 209 -4 198 100
255 66 37 132 41 188 12z"/>
<path d="M1850 1900 c-57 -57 9 -152 79 -115 32 16 41 33 41 75 0 54 -79 81
-120 40z"/>
<path d="M1130 1671 c-117 -38 -175 -109 -199 -241 -22 -119 27 -259 111 -321
82 -59 184 -73 300 -40 106 29 118 40 118 111 l0 60 -62 -32 c-55 -28 -73 -32
-144 -33 -71 0 -85 3 -121 27 -39 26 -64 65 -78 121 l-7 27 217 0 217 0 -6 28
c-3 15 -8 47 -12 72 -3 25 -13 61 -21 80 -16 41 -76 105 -117 127 -33 17 -159
26 -196 14z m171 -139 c34 -35 59 -86 47 -98 -3 -2 -71 -3 -152 -2 l-146 3 22
45 c31 60 77 90 141 90 44 0 54 -4 88 -38z"/>
<path d="M2782 1661 c-112 -39 -177 -148 -177 -296 0 -67 5 -90 29 -143 33
-72 98 -136 155 -153 102 -30 239 -16 319 33 30 19 32 23 32 79 l0 59 -59 -29
c-103 -53 -219 -52 -286 1 -29 23 -65 87 -65 118 0 19 5 20 211 20 l212 0 -7
67 c-9 89 -39 156 -92 202 -70 62 -171 77 -272 42z m194 -122 c25 -23 33 -37
48 -86 l7 -23 -150 0 c-108 0 -151 3 -151 12 0 26 51 96 82 112 48 24 130 17
164 -15z"/>
<path d="M3504 1671 c-11 -5 -43 -34 -72 -66 l-52 -57 0 61 0 61 -60 0 -60 0
0 -305 0 -305 60 0 60 0 0 173 c0 94 5 189 11 210 5 20 28 56 49 78 37 39 42
41 85 37 27 -3 59 -16 79 -31 l34 -26 31 50 c17 28 31 54 31 60 0 5 -17 20
-38 34 -42 28 -123 41 -158 26z"/>
<path d="M1840 1365 l0 -305 60 0 60 0 0 305 0 305 -60 0 -60 0 0 -305z"/>
<path d="M2020 1665 c0 -3 9 -24 19 -48 36 -77 193 -431 222 -497 28 -66 54
-86 76 -58 13 16 263 590 263 604 0 3 -30 4 -67 2 l-67 -3 -66 -155 c-36 -86
-70 -167 -76 -180 l-12 -25 -12 30 c-15 40 -74 172 -115 263 l-34 72 -66 0
c-36 0 -65 -2 -65 -5z"/>
<path d="M3710 1660 c0 -6 38 -86 84 -178 46 -92 95 -195 110 -228 l28 -62
-39 -83 c-21 -46 -66 -142 -100 -214 l-61 -130 65 -3 c36 -2 70 1 74 5 12 12
419 881 419 895 0 4 -30 8 -67 8 l-68 0 -25 -58 c-13 -31 -48 -106 -76 -167
l-52 -110 -57 120 c-31 66 -66 141 -77 168 l-20 47 -69 0 c-40 0 -69 -4 -69
-10z"/>
<path d="M5780 1446 c0 -198 2 -230 19 -269 33 -77 115 -127 208 -127 60 0
103 18 151 63 l42 41 0 -47 0 -47 35 0 35 0 0 305 0 305 -35 0 -35 0 0 -213 0
-214 -31 -42 c-79 -110 -249 -107 -305 6 -16 33 -19 67 -22 251 l-3 212 -30 0
-29 0 0 -224z"/>
<path d="M9046 1046 c-4 -16 -1 -35 8 -49 38 -58 36 -142 -5 -246 l-14 -33 56
-52 c30 -28 105 -80 165 -115 207 -121 319 -196 389 -261 39 -36 95 -84 127
-107 46 -34 59 -51 73 -92 19 -59 64 -87 120 -77 19 4 36 2 40 -4 4 -6 53 -10
121 -10 97 0 114 2 114 16 0 45 -49 75 -145 89 -47 7 -56 13 -155 115 -61 63
-140 132 -190 166 -47 31 -112 76 -145 99 -33 23 -102 68 -154 100 -176 108
-205 148 -204 271 1 45 4 105 8 131 l6 49 -88 11 c-48 6 -95 14 -104 17 -12 5
-18 0 -23 -18z"/>
</g>
</svg>
